<?xml version="1.0" encoding="UTF-8"?><svg id="Layer_1" xmlns="http://www.w3.org/2000/svg" viewBox="0 0 1139.19 979.65"><defs><style>.cls-1{fill-rule:evenodd;}.cls-1,.cls-2,.cls-3{fill:#fff;}.cls-2{font-size:144px;}.cls-2,.cls-3{font-family:Montserrat-Bold, Montserrat;font-weight:700;}.cls-4{letter-spacing:.26em;}.cls-5{letter-spacing:.28em;}.cls-6{letter-spacing:.27em;}.cls-7{letter-spacing:.27em;}.cls-3{font-size:64px;}.cls-8{letter-spacing:.1em;}.cls-9{letter-spacing:.09em;}.cls-10{letter-spacing:.08em;}</style></defs><g id="VOLLEYBALL_CLUB"><text id="VOLLEYBALL_CLUB_-_White" class="cls-3" transform="translate(237.72 548.23)"><tspan class="cls-4" x="0" y="0">V</tspan><tspan class="cls-5" x="64.19" y="0">OLL</tspan><tspan class="cls-7" x="249.28" y="0">EY</tspan><tspan class="cls-5" x="370.43" y="0">BALL C</tspan><tspan class="cls-6" x="718.27" y="0">L</tspan><tspan class="cls-5" x="774.27" y="0">UB</tspan></text></g><g id="EMPOWER"><text id="EMPOWER_-_White" class="cls-2" transform="translate(227.25 486.2)"><tspan class="cls-8" x="0" y="0">EMP</tspan><tspan class="cls-10" x="382.75" y="0">O</tspan><tspan class="cls-9" x="515.37" y="0">W</tspan><tspan class="cls-8" x="695.08" y="0">ER</tspan></text></g><g id="Volleyball"><g id="Volleyball_-_White"><path class="cls-1" d="M121.54,490.61c-8.93-6.4-16.7-16.08-22.45-26.21,13.06-27.64,13.06-65.03,1.85-94.94,3.74,0,13.3.9,20.43,3.39,13.4,24.69,20.7,67.64.17,117.75h0Z"/><path class="cls-1" d="M149.13,503.11c-8.71-2.94-15.01-5.51-21.56-9.15,10.76-23.56,23.69-80.46,3.28-117.02,11.02,4.02,20.1,9.64,27.38,16.39,10.01,39.69,2.8,84.46-9.09,109.79h0Z"/><path class="cls-1" d="M167.24,402.75c6.05,28.09,2.59,71.09-11.05,101.96,9.46,1.77,17.16,1.91,24.48,1.86,18.49-36.78,9.03-79.47-13.44-103.83h0Z"/><path class="cls-1" d="M63.28,473.86c9.88-3.63,19.59-5.22,29.78-6.03,19.11,36.22,54.12,45.33,83.98,45.55-4.56,7.09-11.32,16.01-15.92,19.95-36.04,2.01-79.14-23.84-97.84-59.47h0Z"/><path class="cls-1" d="M33.39,490.92c4.79-4.21,15.86-11.55,23.1-14.35,24.54,43.25,69.31,62.66,96.35,63.46-8.68,6.54-15.96,10.33-27.66,15.04-36.41,1.43-75.69-30.71-91.79-64.16h0Z"/><path class="cls-1" d="M102.92,559.01c-35.62-10.09-63.19-38.76-74.79-63.73-6.22,5.48-12.04,12.35-15.05,16.76,13.1,25.66,50.48,51.83,89.84,46.97h0Z"/><path class="cls-1" d="M93.18,461.28c-42.96.66-72.62,29.7-83.74,44.04-4.15-9.35-7.23-20.3-8.07-28.14,13.59-21.72,48.18-43.8,100.48-47.93-1.36,9.12-4.63,26.21-8.66,32.04h0Z"/><path class="cls-1" d="M102.08,422.36c-38.53,3.19-79.65,18.14-102.08,44.31.68-14.28,2.74-27.52,6.99-37.45,14.96-11.22,47.6-32.93,93.49-32.56,1.59,7.48,1.84,18.62,1.61,25.7h0Z"/><path class="cls-1" d="M13.81,415.89c30.67-18.8,57.11-27.13,85.41-26.2-1.62-7.37-3.88-15.57-5.75-20.23-29.91,0-63.54,17.54-79.66,46.43h0Z"/></g></g></svg>