<?xml version="1.0" encoding="UTF-8"?><svg id="Layer_1" xmlns="http://www.w3.org/2000/svg" viewBox="0 0 1626.89 287.91"><defs><style>.cls-1{font-size:205.86px;}.cls-1,.cls-2{font-family:Montserrat-SemiBold, Montserrat;font-weight:600;}.cls-1,.cls-3{fill:coral;}.cls-4{letter-spacing:.26em;}.cls-5{letter-spacing:.28em;}.cls-6{letter-spacing:.27em;}.cls-7{letter-spacing:.27em;}.cls-2{font-size:91.49px;}.cls-2,.cls-8{fill:#1c1f4c;}.cls-8,.cls-9,.cls-3{fill-rule:evenodd;}.cls-9{fill:#c8a2c8;}.cls-10{letter-spacing:.1em;}.cls-11{letter-spacing:.09em;}.cls-12{letter-spacing:.08em;}</style></defs><g id="Logo"><g id="VOLLEYBALL_CLUB"><text id="VOLLEYBALL_CLUB_-_Navy" class="cls-2" transform="translate(344.8 263.66)"><tspan class="cls-4" x="0" y="0">V</tspan><tspan class="cls-5" x="90.3" y="0">OLL</tspan><tspan class="cls-7" x="353.8" y="0">E</tspan><tspan class="cls-6" x="439.98" y="0">Y</tspan><tspan class="cls-5" x="525.16" y="0">BALL C</tspan><tspan class="cls-6" x="1018.39" y="0">L</tspan><tspan class="cls-5" x="1097.9" y="0">UB</tspan></text></g><g id="EMPOWER"><text id="EMPOWER_-_Coral" class="cls-1" transform="translate(328.49 174.98)"><tspan class="cls-10" x="0" y="0">EMP</tspan><tspan class="cls-12" x="545.72" y="0">O</tspan><tspan class="cls-11" x="735.11" y="0">W</tspan><tspan class="cls-10" x="988.11" y="0">ER</tspan></text></g><g id="Volleyball"><g id="Volleyball_-_Color"><path class="cls-9" d="M173.93,181.29c-12.78-9.15-23.9-22.98-32.12-37.47,18.69-39.52,18.69-92.96,2.64-135.72,5.35,0,19.03,1.29,29.23,4.85,19.17,35.29,29.62,96.7.25,168.34h0Z"/><path class="cls-9" d="M213.41,199.16c-12.47-4.2-21.48-7.88-30.86-13.08,15.39-33.68,33.91-115.02,4.69-167.29,15.77,5.75,28.76,13.79,39.17,23.42,14.33,56.74,4,120.74-13.01,156.94h0Z"/><path class="cls-9" d="M239.33,55.68c8.65,40.15,3.71,101.63-15.81,145.76,13.53,2.53,24.56,2.73,35.04,2.66,26.46-52.57,12.92-113.61-19.23-148.42h0Z"/><path class="cls-8" d="M90.55,157.35c14.14-5.18,28.03-7.46,42.61-8.62,27.34,51.77,77.44,64.8,120.18,65.11-6.52,10.14-16.2,22.89-22.78,28.52-51.58,2.87-113.25-34.08-140.01-85.01h0Z"/><path class="cls-8" d="M47.78,181.73c6.86-6.02,22.7-16.52,33.05-20.52,35.11,61.84,99.19,89.58,137.88,90.73-12.43,9.35-22.84,14.76-39.58,21.51-52.1,2.04-108.31-43.89-131.34-91.72h0Z"/><path class="cls-8" d="M147.27,279.06c-50.97-14.42-90.43-55.42-107.03-91.11-8.91,7.84-17.23,17.66-21.54,23.96,18.74,36.69,72.24,74.1,128.56,67.14h0Z"/><path class="cls-3" d="M133.34,139.35c-61.47.95-103.93,42.45-119.84,62.95-5.94-13.37-10.35-29.03-11.55-40.22,19.45-31.06,68.95-62.62,143.78-68.53-1.95,13.04-6.63,37.47-12.39,45.8h0Z"/><path class="cls-3" d="M146.08,83.71c-55.13,4.56-113.98,25.93-146.08,63.35.98-20.41,3.92-39.35,10-53.54,21.4-16.03,68.12-47.07,133.78-46.54,2.27,10.7,2.63,26.63,2.3,36.74h0Z"/><path class="cls-3" d="M19.76,74.47c43.89-26.88,81.73-38.79,122.22-37.46-2.32-10.54-5.55-22.25-8.23-28.91-42.8,0-90.93,25.07-113.99,66.37h0Z"/></g></g></g></svg>